<svg version="1.1" xmlns="http://www.w3.org/2000/svg" xmlns:xlink="http://www.w3.org/1999/xlink" width="171.9852" height="74.93969" viewBox="0,0,171.9852,74.93969"><defs><linearGradient x1="154.00726" y1="179.99957" x2="325.99246" y2="179.99957" gradientUnits="userSpaceOnUse" id="color-1"><stop offset="0" stop-color="#fbb040"/><stop offset="1" stop-color="#f15a29"/></linearGradient><linearGradient x1="160.46086" y1="179.99814" x2="319.53728" y2="179.99814" gradientUnits="userSpaceOnUse" id="color-2"><stop offset="0" stop-color="#ed7340"/><stop offset="0.5181" stop-color="#f4aa46"/><stop offset="1" stop-color="#f29746"/></linearGradient></defs><g transform="translate(-154.0074,-142.53016)"><g data-paper-data="{&quot;isPaintingLayer&quot;:true}" fill-rule="nonzero" stroke="none" stroke-width="1" stroke-linecap="butt" stroke-linejoin="miter" stroke-miterlimit="10" stroke-dasharray="" stroke-dashoffset="0" style="mix-blend-mode: normal"><path d="M325.9926,180c0,20.65972 -16.81155,37.46984 -37.47271,37.46984h-97.04408c-20.65972,0 -37.46841,-16.80869 -37.46841,-37.46984c0,-20.66116 16.80725,-37.46984 37.46841,-37.46984h97.04408c20.66116,0 37.47128,16.80725 37.47271,37.46984z" fill="url(#color-1)"/><path d="M319.53742,179.99713c0,17.13116 -13.88637,31.0161 -31.01753,31.0161h-97.04408c-17.12973,0 -31.01466,-13.88494 -31.01466,-31.0161v0c0,-17.12829 13.88494,-31.01466 31.01466,-31.01466h97.04408c17.12973,0 31.01753,13.88637 31.01753,31.01466z" fill="url(#color-2)"/><text transform="translate(174.2928,175.07196) scale(0.41067,0.41067)" font-size="40" xml:space="preserve" fill="#ea0000" fill-rule="nonzero" stroke="none" stroke-width="1" stroke-linecap="butt" stroke-linejoin="miter" stroke-miterlimit="10" stroke-dasharray="" stroke-dashoffset="0" font-family="Sans Serif" font-weight="normal" text-anchor="start" style="mix-blend-mode: normal"><tspan x="0" dy="0">注意！</tspan><tspan x="0" dy="48px">与管理员断开连接</tspan></text><text transform="translate(195.51238,199.17769) scale(0.5,0.5)" font-size="40" xml:space="preserve" fill="#ea0000" fill-rule="nonzero" stroke="none" stroke-width="1" stroke-linecap="butt" stroke-linejoin="miter" stroke-miterlimit="10" stroke-dasharray="" stroke-dashoffset="0" font-family="Sans Serif" font-weight="normal" text-anchor="start" style="mix-blend-mode: normal"><tspan x="0" dy="0"> </tspan></text></g></g></svg>